<?xml version="1.0" standalone="no"?>
<!DOCTYPE svg PUBLIC "-//W3C//DTD SVG 20010904//EN"
 "http://www.w3.org/TR/2001/REC-SVG-20010904/DTD/svg10.dtd">
<svg version="1.0" xmlns="http://www.w3.org/2000/svg"
 width="327.000000pt" height="366.000000pt" viewBox="0 0 327.000000 366.000000"
 preserveAspectRatio="xMidYMid meet">

<g transform="translate(0.000000,366.000000) scale(0.100000,-0.100000)"
fill="#000000" stroke="none">
<path d="M1098 3611 l-47 -6 69 -107 69 -107 -37 -6 c-124 -20 -203 -56 -272
-124 -80 -79 -130 -202 -130 -320 0 -110 75 -262 160 -326 44 -33 44 -26 10
-150 -67 -249 13 -522 208 -707 l61 -58 -150 0 -149 0 0 -70 0 -70 203 0 202
0 13 -29 c26 -59 119 -56 139 6 l10 28 16 -31 c31 -60 107 -64 132 -6 12 28
28 28 40 0 6 -13 22 -29 38 -36 35 -17 76 1 96 43 l14 30 10 -29 c20 -61 113
-64 139 -5 l13 29 202 0 203 0 0 70 0 70 -149 0 -149 0 67 65 c78 75 162 208
191 304 44 140 43 302 -2 442 l-21 66 34 31 c19 17 37 32 41 32 4 0 26 27 49
61 169 249 55 578 -230 665 -25 7 -59 14 -76 14 -56 1 -55 11 17 120 l69 105
-58 7 c-107 13 -259 -15 -356 -64 -38 -19 -119 -94 -148 -138 l-16 -24 -26 41
c-51 81 -161 149 -277 171 -78 15 -167 21 -222 13z m151 -372 c171 -36 274
-225 212 -388 -46 -122 -148 -194 -274 -194 -161 -1 -282 108 -294 267 -13
153 78 281 224 315 53 13 75 13 132 0z m944 -22 c179 -82 225 -317 92 -465
-60 -67 -127 -96 -222 -95 -95 0 -166 33 -223 105 -66 83 -84 176 -55 275 51
173 241 257 408 180z m-449 -597 l109 -111 -113 -110 -113 -111 -76 74 c-42
41 -93 91 -114 110 l-38 36 108 111 c59 61 113 111 119 111 5 0 59 -50 118
-110z"/>
<path d="M1108 3074 c-117 -76 -64 -264 75 -264 131 0 192 154 97 245 -25 23
-41 29 -87 32 -42 3 -65 -1 -85 -13z"/>
<path d="M1993 3070 c-46 -28 -67 -65 -67 -119 0 -152 199 -195 270 -59 30 58
7 144 -48 178 -43 26 -113 26 -155 0z"/>
<path d="M1710 1128 c-58 -5 -110 -14 -116 -21 -6 -7 -19 -39 -29 -72 -11 -33
-23 -64 -27 -69 -4 -6 -8 -17 -8 -25 0 -9 -7 -29 -15 -45 -8 -15 -15 -35 -15
-43 0 -8 -6 -29 -14 -46 -20 -48 -96 -264 -96 -275 0 -5 -7 -23 -15 -38 -8
-16 -15 -37 -15 -46 0 -9 -4 -19 -9 -22 -5 -3 -12 -23 -16 -43 -4 -21 -10 -42
-14 -48 -4 -5 -16 -37 -27 -70 -20 -63 -53 -108 -95 -128 -19 -10 -25 -21 -27
-60 l-3 -47 220 0 221 0 0 49 0 48 -65 5 c-74 6 -95 19 -95 57 0 24 19 91 39
136 5 11 11 27 14 36 7 23 51 29 206 29 l137 0 12 -52 c29 -123 32 -144 27
-165 -3 -14 -16 -25 -33 -29 -107 -24 -102 -21 -102 -69 l0 -45 246 0 245 0
-3 52 c-3 50 -4 53 -36 59 -71 14 -87 48 -174 374 -6 22 -16 60 -24 85 -7 25
-20 72 -29 105 -9 33 -20 70 -25 81 -5 12 -12 43 -16 70 -4 27 -10 51 -13 54
-6 4 -13 30 -37 140 -11 50 -35 90 -52 89 -9 -1 -64 -6 -122 -11z m14 -270 c8
-29 25 -91 37 -138 12 -47 25 -92 29 -100 4 -8 10 -34 14 -57 l6 -43 -130 0
c-71 0 -130 4 -130 8 0 4 13 46 30 92 16 47 30 93 30 103 0 9 4 17 9 17 5 0
12 20 15 45 4 25 11 45 17 45 5 0 9 9 9 21 0 28 18 59 35 59 8 0 20 -22 29
-52z"/>
<path d="M24 1121 c-2 -2 -4 -26 -4 -53 l0 -48 41 0 c28 0 46 -6 55 -17 11
-14 13 -100 13 -413 1 -359 -1 -397 -17 -416 -19 -24 -73 -54 -97 -54 -11 0
-15 -11 -15 -45 l0 -45 230 0 230 0 0 24 c0 13 3 37 6 54 l6 30 -51 -1 c-40
-1 -55 4 -71 21 -18 19 -20 35 -20 180 l0 159 68 12 c41 8 129 11 227 9 l160
-3 3 -130 c4 -182 -18 -245 -84 -245 -28 0 -40 -16 -48 -67 l-6 -43 235 0 235
0 0 55 0 55 -49 0 c-78 0 -81 8 -81 230 0 102 5 279 11 395 10 190 13 212 32
233 11 12 30 22 42 22 32 0 45 19 45 67 l0 43 -219 -3 -220 -2 -11 -42 c-7
-23 -9 -46 -5 -52 3 -6 26 -11 50 -11 68 0 76 -23 73 -208 l-3 -147 -65 -9
c-76 -12 -360 -10 -371 1 -3 5 -4 79 0 165 6 133 10 160 26 178 10 11 28 20
40 20 32 0 45 19 45 66 l0 43 -216 -2 c-119 -1 -218 -4 -220 -6z"/>
<path d="M2346 1107 c-3 -12 -6 -37 -6 -54 0 -32 1 -33 43 -33 77 0 72 28 72
-424 0 -455 5 -427 -79 -461 -41 -17 -45 -22 -51 -62 -8 -54 -2 -65 31 -53 36
14 377 13 391 -1 12 -12 86 -8 188 10 55 9 88 20 125 42 8 5 22 12 30 16 44
21 96 79 125 140 28 59 35 176 13 216 -43 76 -84 111 -175 149 -33 13 -45 38
-19 38 28 0 120 104 139 155 43 122 -3 246 -110 299 -21 10 -47 23 -58 30 -14
7 -121 12 -337 13 l-316 2 -6 -22z m486 -116 c63 -13 95 -36 119 -82 40 -79
16 -177 -58 -238 -33 -27 -45 -31 -99 -31 -33 0 -76 5 -94 11 l-33 12 5 159
c6 204 4 201 160 169z m28 -481 c0 -5 9 -10 20 -10 22 0 64 -23 91 -49 77 -78
57 -225 -39 -277 -33 -19 -58 -24 -112 -24 -88 0 -136 21 -156 68 -17 42 -17
71 -3 202 l12 100 93 0 c56 0 94 -4 94 -10z"/>
</g>
</svg>
