<svg width="40" height="40" viewBox="0 0 40 40" fill="none" xmlns="http://www.w3.org/2000/svg">
<circle cx="20" cy="20" r="20" fill="#D9D9D9"/>
<path d="M20.0001 17.9167C20.8571 17.9167 21.6949 17.6625 22.4076 17.1864C23.1202 16.7102 23.6756 16.0334 24.0036 15.2416C24.3315 14.4498 24.4174 13.5785 24.2502 12.7379C24.0829 11.8974 23.6702 11.1252 23.0642 10.5192C22.4582 9.91318 21.6861 9.50047 20.8455 9.33327C20.0049 9.16606 19.1336 9.25188 18.3418 9.57986C17.55 9.90784 16.8732 10.4633 16.397 11.1759C15.9209 11.8885 15.6667 12.7263 15.6667 13.5833C15.6667 14.7326 16.1233 15.8348 16.936 16.6475C17.7486 17.4601 18.8508 17.9167 20.0001 17.9167Z" fill="#231F20"/>
<path d="M26.5001 28.75C26.7874 28.75 27.063 28.6358 27.2661 28.4327C27.4693 28.2295 27.5834 27.954 27.5834 27.6666C27.5834 25.6554 26.7845 23.7266 25.3623 22.3044C23.9402 20.8823 22.0113 20.0833 20.0001 20.0833C17.9889 20.0833 16.06 20.8823 14.6379 22.3044C13.2157 23.7266 12.4167 25.6554 12.4167 27.6666C12.4167 27.954 12.5309 28.2295 12.734 28.4327C12.9372 28.6358 13.2128 28.75 13.5001 28.75H26.5001Z" fill="#231F20"/>
<path d="M31.9167 8.58335H29.4167V6.08335C29.4167 5.97285 29.3728 5.86687 29.2947 5.78873C29.2166 5.71059 29.1106 5.66669 29.0001 5.66669C28.8896 5.66669 28.7836 5.71059 28.7055 5.78873C28.6273 5.86687 28.5834 5.97285 28.5834 6.08335V8.58335H26.0834C25.9729 8.58335 25.8669 8.62725 25.7888 8.70539C25.7106 8.78353 25.6667 8.88951 25.6667 9.00002C25.6667 9.11053 25.7106 9.21651 25.7888 9.29465C25.8669 9.37279 25.9729 9.41669 26.0834 9.41669H28.5834V11.9167C28.5834 12.0272 28.6273 12.1332 28.7055 12.2113C28.7836 12.2895 28.8896 12.3334 29.0001 12.3334C29.1106 12.3334 29.2166 12.2895 29.2947 12.2113C29.3728 12.1332 29.4167 12.0272 29.4167 11.9167V9.41669H31.9167C32.0273 9.41669 32.1332 9.37279 32.2114 9.29465C32.2895 9.21651 32.3334 9.11053 32.3334 9.00002C32.3334 8.88951 32.2895 8.78353 32.2114 8.70539C32.1332 8.62725 32.0273 8.58335 31.9167 8.58335Z" fill="#231F20"/>
</svg>
